<svg width="430" height="932" viewBox="0 0 430 932" fill="none" xmlns="http://www.w3.org/2000/svg">
<g clip-path="url(#clip0_21_363)">
<rect width="430" height="932" fill="white"/>
<path d="M288.5 247L226.5 309L212 327.5L385.5 501L522 364.5L432.5 275L369 327.5L288.5 247Z" stroke="#BDBBBB"/>
<path d="M222.871 421.854L85.871 558.854M216.871 415.854L79.871 552.854M210.871 409.854L73.871 546.854M204.871 403.854L67.871 540.854M198.871 397.854L61.871 534.854M192.871 391.854L55.871 528.854M186.871 385.854L49.871 522.854M180.871 379.854L43.871 516.854M174.871 373.854L37.871 510.854M168.871 367.854L31.871 504.854M162.871 361.854L25.871 498.854M156.871 355.854L19.871 492.854M150.871 349.854L13.871 486.854M144.871 343.854L7.87103 480.854M138.871 337.854L1.87103 474.854M75.3535 390.854L-2.64645 468.854M71.3535 386.854L-6.64645 464.854M67.3535 382.854L-10.6465 460.854M63.3535 378.854L-14.6465 456.854M59.3535 374.854L-18.6465 452.854M55.3535 370.854L-22.6465 448.854M51.3535 366.854L-26.6465 444.854M47.3535 362.854L-30.6465 440.854M43.3535 358.854L-34.6465 436.854M39.3535 354.854L-38.6465 432.854M35.3535 350.854L-42.6465 428.854M31.3535 346.854L-46.6465 424.854M27.3535 342.854L-50.6465 420.854M23.3535 338.854L-54.6465 416.854M19.3535 334.854L-58.6465 412.854M15.3535 330.854L-62.6465 408.854M11.3535 326.854L-66.6465 404.854M7.35355 322.854L-70.6465 400.854M3.35355 318.854L-74.6465 396.854M-0.646454 314.854L-78.6465 392.854M-36.9825 362L25.0175 300L105.517 380.5L169.017 328L258.517 417.5L122.017 554L-51.4825 380.5L-36.9825 362Z" stroke="black"/>
</g>
<defs>
<clipPath id="clip0_21_363">
<rect width="430" height="932" fill="white"/>
</clipPath>
</defs>
</svg>
