<svg width="24" height="24" viewBox="0 0 24 24" fill="none" xmlns="http://www.w3.org/2000/svg">
<rect width="24" height="24" fill="#1E1E1E"/>
<g id="Landing" clip-path="url(#clip0_0_1)">
<rect width="430" height="932" transform="translate(-101 -824)" fill="white"/>
<g id="Frame 5068">
<rect x="-77" y="-17" width="382" height="58" rx="10" fill="#111111"/>
<g id="Frame 9">
<rect width="24" height="24" rx="12" fill="#111111"/>
<g id="flat-color-icons:google">
<path id="Vector" d="M21.8056 10.0412H21.0001V9.99969H12.0001V13.9997H17.6516C16.8271 16.3282 14.6116 17.9997 12.0001 17.9997C8.68659 17.9997 6.00009 15.3132 6.00009 11.9997C6.00009 8.68619 8.68659 5.99969 12.0001 5.99969C13.5296 5.99969 14.9211 6.57669 15.9806 7.51919L18.8091 4.69069C17.0231 3.02619 14.6341 1.99969 12.0001 1.99969C6.47759 1.99969 2.00009 6.47719 2.00009 11.9997C2.00009 17.5222 6.47759 21.9997 12.0001 21.9997C17.5226 21.9997 22.0001 17.5222 22.0001 11.9997C22.0001 11.3292 21.9311 10.6747 21.8056 10.0412Z" fill="#FFC107"/>
<path id="Vector_2" d="M3.15378 7.34519L6.43928 9.75469C7.32828 7.55369 9.48128 5.99969 12.0008 5.99969C13.5303 5.99969 14.9218 6.57669 15.9813 7.51919L18.8098 4.69069C17.0238 3.02619 14.6348 1.99969 12.0008 1.99969C8.15978 1.99969 4.82878 4.16819 3.15378 7.34519Z" fill="#FF3D00"/>
<path id="Vector_3" d="M11.999 22C14.582 22 16.929 21.0115 18.7035 19.404L15.6085 16.785C14.5708 17.5742 13.3028 18.0011 11.999 18C9.39804 18 7.18954 16.3415 6.35754 14.027L3.09654 16.5395C4.75154 19.778 8.11254 22 11.999 22Z" fill="#4CAF50"/>
<path id="Vector_4" d="M21.8058 10.0411H21.0003V9.99963H12.0003V13.9996H17.6518C17.2574 15.1078 16.547 16.0762 15.6083 16.7851L15.6098 16.7841L18.7048 19.4031C18.4858 19.6021 22.0003 16.9996 22.0003 11.9996C22.0003 11.3291 21.9313 10.6746 21.8058 10.0411Z" fill="#1976D2"/>
</g>
</g>
</g>
</g>
<defs>
<clipPath id="clip0_0_1">
<rect width="430" height="932" fill="white" transform="translate(-101 -824)"/>
</clipPath>
</defs>
</svg>
