<svg width="34" height="34" viewBox="0 0 34 34" fill="none" xmlns="http://www.w3.org/2000/svg">
<g id="game-icons:root-tip">
<path id="Vector" d="M1.07044 1.99656L1.07031 11.7172L5.04264 14.9378L8.91751 23.0136L8.30227 15.8329C5.7604 12.641 3.66886 9.0039 4.35231 4.58285L5.54998 4.76798C5.07584 7.8349 6.09467 10.5048 7.71835 12.9817L12.7596 15.7761L18.1979 27.6944C22.7664 29.8954 27.3351 31.4962 31.9036 32.3906C28.8124 30.9877 25.8194 29.0892 23.3876 26.5082L19.3381 25.791L19.5492 24.5979L20.3961 24.8086L28.01 25.9858C24.5858 24.7188 21.4576 23.1559 19.45 20.4722C18.7858 18.8865 18.2928 17.1415 18.0131 15.2194C16.4986 14.9024 15.0043 14.3613 13.5408 13.5665L14.1192 12.5016C15.8203 13.4255 17.5465 13.9766 19.3067 14.2151L22.3382 14.347L31.8203 24.126C30.6453 20.7492 28.478 16.2761 26.1017 12.6053C24.0936 11.7295 22.1349 11.6041 20.1435 12.243L19.7732 11.0889C20.6936 10.7937 21.6193 10.646 22.545 10.6398C22.6773 10.6389 22.8095 10.6409 22.9417 10.6457C24.6858 10.7097 26.4267 11.2734 28.1274 12.2941C29.1788 12.8235 30.2575 13.4438 31.3883 14.1437C29.1842 11.2712 27.1256 8.69816 23.7881 7.68569L23.7878 7.68524L22.2354 8.67968C19.8842 9.81354 16.517 9.85757 13.4644 8.11911C12.0664 8.59402 10.6787 8.89788 9.30365 8.99625L9.21715 7.78756C10.9257 7.66527 12.6926 7.18827 14.5069 6.42065C13.3323 5.98977 12.12 5.39547 10.9992 4.7294C9.51342 3.84642 8.21065 2.87876 7.39744 1.99643L1.07044 1.99656ZM9.16593 24.824L9.07514 29.451C11.5705 31.864 14.7002 32.4342 18.1474 32.9891C13.9759 30.6065 11.0252 28.3258 9.16593 24.824Z" fill="black"/>
</g>
</svg>
